Coordinates
version=1
nRows=16
nColumns=36
inDegrees=yes

Units are S.I. units (second, meters, Newtons, ...)
If the header above contains a line with 'inDegrees', this indicates whether rotational values are in degrees (yes) or radians (no).

endheader
time	pelvis_tilt	pelvis_list	pelvis_rotation	pelvis_tx	pelvis_ty	pelvis_tz	hip_flexion_r	hip_adduction_r	hip_rotation_r	knee_angle_r	knee_angle_r_beta	ankle_angle_r	subtalar_angle_r	mtp_angle_r	hip_flexion_l	hip_adduction_l	hip_rotation_l	knee_angle_l	knee_angle_l_beta	ankle_angle_l	subtalar_angle_l	mtp_angle_l	lumbar_extension	lumbar_bending	lumbar_rotation	arm_flex_r	arm_add_r	arm_rot_r	elbow_flex_r	pro_sup_r	arm_flex_l	arm_add_l	arm_rot_l	elbow_flex_l	pro_sup_l
      5.03333330	     -2.20635370	      2.49943998	     -2.74353095	      1.09358455	      0.97951496	      0.02328838	      5.24127162	     -1.06179264	     -1.27813011	     13.78709647	      0.24063023	     13.13835803	      8.76181141	     -7.49999987	      3.56042411	      2.61321556	     -0.86097794	     15.79639105	      0.27569903	      8.70773531	      6.16271101	     -7.49999987	      3.44634040	     -0.23522456	     -2.36840663	     11.68341032	    -16.01857298	     22.21299313	    132.73550192	     73.51135766	     -6.79435766	     -2.72532357	     49.48642422	    142.19362813	     81.53843736
      5.05000000	     -2.12216168	      2.37036746	     -2.91286468	      1.09233117	      0.97064556	      0.02269266	      5.41945697	     -0.89086368	     -0.94113975	     14.23797951	      0.24849962	     14.56896858	      8.45206399	     -7.49999987	      3.55480408	      2.68698458	     -0.57468991	     16.25316661	      0.28367127	     10.23242216	      5.64888609	     -7.49999987	      3.32757522	     -0.23723112	     -2.45409352	     11.47243305	    -15.86328071	     21.97561096	    132.46203151	     73.72214749	     -6.40150037	     -2.27757781	     49.58614660	    141.99938111	     81.52770577
      5.06666670	     -2.10898610	      2.33131582	     -3.11442190	      1.09309108	      0.97412781	      0.02295968	      5.63417897	     -0.90431933	     -1.03112470	     14.63085280	      0.25535655	     15.34038939	      8.62400843	     -7.49999987	      3.66973757	      2.76505903	     -0.52629648	     16.75427106	      0.29241719	     11.04612760	      5.38476270	     -7.49999987	      3.40072418	     -0.36019296	     -1.42014623	      9.97369785	    -15.65510344	     20.40192431	    132.74525724	     76.02670943	     -5.50285175	     -2.05915954	     50.42983213	    141.31908531	     81.12271293
      5.08333330	     -2.03089902	      2.17194376	     -3.31900523	      1.09240525	      0.97404666	      0.02147797	      5.71378217	     -0.79220297	     -0.77129005	     14.85353807	      0.25924314	     15.82836330	      8.60718796	     -7.49999987	      3.60971053	      2.75532880	     -0.25934917	     16.93333895	      0.29554252	     11.86203795	      5.06606708	     -7.49999987	      3.34613524	     -0.14859445	     -1.42677483	      9.51272836	    -15.53221872	     20.36936914	    132.53585222	     76.04302358	     -5.22970803	     -1.75753152	     50.59315241	    141.32419023	     80.49421225
      5.10000000	     -1.97001738	      2.04338028	     -3.51637447	      1.09034812	      0.97561521	      0.02490372	      5.84519454	     -0.61725046	     -0.65000494	     15.06749994	      0.26297748	     15.89216878	      8.67123179	     -7.49999987	      3.64737938	      2.62359768	     -0.05936709	     17.09428474	      0.29835155	     12.12565033	      4.91452765	     -7.49999987	      3.20548545	     -0.10124694	     -1.45304375	      9.06480994	    -15.38723631	     20.46540246	    132.33353067	     76.14872245	     -5.18237855	     -1.68753236	     50.60736832	    141.27121255	     80.50609319
      5.11666670	     -1.98320088	      1.96522468	     -3.71166484	      1.09257768	      0.97534120	      0.02082673	      5.98199749	     -0.61423723	     -0.47809097	     15.17839650	      0.26491299	     15.84151613	      8.82725413	     -7.49999987	      3.73156673	      2.65141082	      0.12436704	     17.18186684	      0.29988015	     12.36390750	      4.77397801	     -7.49999987	      3.24065972	     -0.04525904	     -1.55563304	      8.69504651	    -15.36725891	     20.53453783	    132.28164849	     76.27770374	     -5.04906923	     -1.30796079	     50.68313248	    141.21224927	     80.51211367
      5.13333330	     -2.02936243	      1.91189346	     -3.89868004	      1.09354756	      0.98178157	      0.02102971	      6.04551595	     -0.62413232	     -0.19183764	     15.13579101	      0.26416939	     15.41321961	      9.14122231	     -7.49999987	      3.81674617	      2.62597749	      0.34483070	     17.06923517	      0.29791435	     12.25193403	      4.75418867	     -7.49999987	      3.27469299	     -0.03344316	     -1.76683568	      8.05234007	    -15.29377829	     20.67358942	    132.13584688	     76.35110096	     -5.04420281	     -1.06642532	     50.72208535	    140.99772311	     80.48748753
      5.15000000	     -2.22705280	      1.88833054	     -4.04790094	      1.09351954	      0.98427413	      0.02159435	      6.03687046	     -0.62328848	     -0.30683652	     14.70510722	      0.25665254	     14.51210268	      9.61103398	     -7.49999987	      3.91216379	      2.63614730	      0.63016743	     16.75379806	      0.29240894	     11.40637764	      4.17965151	     -7.49999987	      3.60597877	     -0.17561700	     -0.25503847	      5.59786630	    -15.36670879	     18.69426804	    132.97413445	     80.92931134	     -4.32794177	     -0.96147370	     51.70134020	    140.26680532	     79.43031085
      5.16666670	     -2.24513482	      1.87860540	     -4.07091316	      1.09037065	      0.98898153	      0.02370703	      5.94492138	     -0.56003443	     -0.21899783	     14.32882817	      0.25008523	     13.70920733	      9.94715712	     -7.49999987	      3.97757524	      2.51050146	      0.53881262	     16.49595921	      0.28790880	     10.62197824	      4.27964880	     -7.49999987	      3.56548971	     -0.30824306	     -0.39289320	      4.83970018	    -15.36322502	     18.81973954	    132.72647441	     80.94218462	     -4.63100610	     -1.28591589	     51.69101947	    140.24190887	     79.41068546
      5.18333330	     -2.23170951	      1.86897990	     -4.11148933	      1.08994644	      0.98607903	      0.02163498	      5.80822174	     -0.58856308	     -0.24065811	     13.86839246	      0.24204911	     13.03197653	      9.94069658	     -7.49999987	      3.91676654	      2.49410970	      0.57713816	     16.16335518	      0.28210377	      9.91276643	      4.06722184	     -7.49999987	      3.56144208	     -0.39998984	     -0.33442594	      4.49581998	    -15.57751478	     18.84594481	    132.73549861	     80.17642937	     -4.87726618	     -1.48750473	     51.67585469	    140.29334068	     78.63567999
      5.20000000	     -2.19098688	      1.81940585	     -4.05844278	      1.08666053	      0.98295964	      0.02166717	      5.89099133	     -0.54300406	     -0.32285730	     13.84533747	      0.24164672	     12.73980658	      9.93389120	     -7.49999987	      4.04958401	      2.44990226	      0.53535261	     16.15035590	      0.28187689	      9.53161733	      3.87342034	     -7.49999987	      3.42503569	     -0.44566602	     -0.26272329	      4.46044685	    -15.74659845	     19.09189825	    132.91497817	     77.99100318	     -4.76058610	     -1.67452649	     51.76829808	    140.24343629	     76.57882722
      5.21666670	     -2.11557206	      1.72227650	     -3.97428964	      1.08588399	      0.97910263	      0.02317201	      6.00617135	     -0.42514734	     -0.43601175	     14.02788991	      0.24483287	     12.91329317	      9.98854757	     -7.49999987	      4.08593759	      2.33445664	      0.50245059	     16.19859622	      0.28271884	      9.74207505	      3.76854233	     -7.49999987	      3.23862303	     -0.54963889	     -0.20344797	      4.51632551	    -15.91585191	     19.21055991	    133.29255888	     77.10747466	     -4.13381216	     -1.73690145	     51.98128808	    140.24045957	     75.76118622
      5.23333330	     -2.20433244	      1.72338969	     -3.82912158	      1.08390712	      0.98159903	      0.02120418	      6.23198992	     -0.48219862	     -0.59867751	     14.01877998	      0.24467387	     12.95052560	     10.01385004	     -7.49999987	      4.22426896	      2.34621420	      0.31510502	     16.10116118	      0.28101828	      9.96031227	      4.06212436	     -7.49999987	      3.29657949	     -0.64843035	      0.12444961	      4.11576617	    -16.09428666	     18.87289433	    133.86031729	     77.42074752	     -3.25664468	     -1.65059384	     52.16705255	    139.95811791	     75.73252228
      5.25000000	     -2.56798823	      1.77232067	     -3.75048214	      1.08301337	      0.98132731	      0.01832650	      6.78143552	     -0.59773737	     -0.46264156	     14.12891224	      0.24659604	     12.94320213	      9.65771973	     -7.49999987	      4.64632229	      2.48711557	      0.39174032	     16.04588551	      0.28005353	     10.03081089	      3.82775549	     -7.49999987	      3.81179627	     -0.67750258	     -0.03411471	      4.08151649	    -16.21418070	     18.87630035	    133.90847554	     76.60920161	     -3.25664342	     -1.66364134	     51.71087094	    140.07225624	     74.85953324
      5.26666670	     -2.28419302	      1.75104720	     -3.59693546	      1.08193900	      0.98086115	      0.01878561	      6.49799943	     -0.70156332	     -0.73235813	     14.02784657	      0.24483211	     12.98589908	     10.04186654	     -7.49999987	      4.30627999	      2.59372042	      0.39868043	     15.85954362	      0.27680125	     10.21053767	      3.82441484	     -7.49999987	      3.32108451	     -0.73741307	      0.16266953	      3.94374048	    -16.69177833	     18.73841716	    134.52131422	     76.69384341	     -2.50158152	     -1.50963443	     51.95388873	    139.67388863	     74.50623273
      5.28333330	     -2.41057017	      1.77978133	     -3.53721206	      1.07932503	      0.97729051	      0.01845084	      6.78882262	     -0.79425658	     -0.91807578	     14.19859197	      0.24781218	     13.27225645	     10.23438724	     -7.49999987	      4.48627946	      2.70171687	      0.54611637	     15.76115087	      0.27508398	     10.52915786	      3.64552942	     -7.49999987	      3.36267620	     -0.80510138	      1.23957701	      2.82066742	    -17.09475611	     17.18774679	    135.26494883	     79.83175136	     -1.69340307	     -1.66653005	     52.44398074	    139.31017377	     75.72472979
